<?xml version="1.0" encoding="utf-8"?>
<!-- Generator: Adobe Illustrator 16.0.0, SVG Export Plug-In . SVG Version: 6.00 Build 0)  -->
<!DOCTYPE svg PUBLIC "-//W3C//DTD SVG 1.1//EN" "http://www.w3.org/Graphics/SVG/1.1/DTD/svg11.dtd">
<svg version="1.1" id="Layer_1" xmlns="http://www.w3.org/2000/svg" xmlns:xlink="http://www.w3.org/1999/xlink" x="0px" y="0px"
	 width="527.975px" height="605.33px" viewBox="0 0 527.975 605.33" enable-background="new 0 0 527.975 605.33"
	 xml:space="preserve">
<g>
	<path d="M385.776,321.208c-78.214,0-140.638,63.096-140.699,140.637c0,77.541,63.159,140.699,140.699,140.699
		s140.698-63.158,140.698-140.639C526.475,384.367,463.316,321.208,385.776,321.208z M385.776,570.964
		c-59.731,0-108.446-48.715-108.446-108.445s48.776-108.387,108.446-108.387c59.731,0,108.446,48.717,108.446,108.447
		S445.508,570.964,385.776,570.964z"/>
	<path d="M415.274,516.068c3.428,0,6.854-1.348,8.936-4.102c4.773-4.771,4.773-13.709,0-18.543l-34.333-35.006v-58.998
		c0-7.527-5.508-13.035-13.036-13.035c-6.854,0-13.034,6.182-13.034,13.035v70.014l42.533,43.207
		C409.154,514.722,412.582,516.068,415.274,516.068z"/>
	<path d="M418.028,2.785H55.724c-30.171,0-54.223,23.99-54.223,54.223V544.22c0,30.17,23.99,54.223,54.223,54.223h193.515
		c11.688,0,21.298-9.607,20.563-21.971c-0.675-10.955-10.283-19.217-21.972-19.217H55.663c-6.854,0-13.036-5.508-13.036-13.035
		V57.007c0-6.854,5.508-13.036,13.036-13.036h362.304c6.854,0,13.035,6.181,13.035,13.036V278c0,11.689,8.937,20.563,20.563,20.563
		c11.688,0,20.562-8.936,20.562-20.563V57.007C472.252,26.774,448.262,2.785,418.028,2.785z"/>
	<path d="M121.575,189.444L121.575,189.444c-3.427,0-6.854-1.346-9.608-4.1l-37.026-37.026c-5.508-5.508-5.508-13.709,0-19.217
		c5.508-5.508,13.709-5.508,19.217,0l27.479,27.479l58.998-58.997c5.508-5.508,13.709-5.508,19.217,0s5.508,13.708,0,19.217
		l-68.668,68.544C128.43,188.038,125.003,189.444,121.575,189.444z"/>
	<path d="M121.575,318.455c-3.427,0-6.854-1.348-9.608-4.102l-37.026-37.086c-5.508-5.508-5.508-13.709,0-19.217
		c5.508-5.508,13.709-5.508,19.217,0l27.479,27.479l58.998-58.997c5.508-5.508,13.709-5.508,19.217,0
		c5.508,5.508,5.508,13.709,0,19.217l-68.668,68.604C128.43,317.046,125.003,318.455,121.575,318.455z"/>
	<path d="M121.575,443.363c-3.427,0-6.854-1.348-9.608-4.102l-37.026-37.025c-5.508-5.508-5.508-13.709,0-19.217
		c5.508-5.508,13.709-5.508,19.217,0l27.479,27.479l58.998-58.996c5.508-5.508,13.709-5.508,19.217,0s5.508,13.709,0,19.217
		l-68.668,68.482C128.43,442.628,125.003,443.363,121.575,443.363z"/>
	<path d="M385.776,155.112h-133.11c-7.527,0-13.709-6.181-13.709-13.709c0-7.527,6.182-13.708,13.709-13.708h133.11
		c7.527,0,13.709,6.181,13.709,13.708C399.485,148.931,393.365,155.112,385.776,155.112z"/>
	<path d="M385.776,271.758h-133.11c-7.527,0-13.709-6.181-13.709-13.708c0-7.528,6.182-13.709,13.709-13.709h133.11
		c7.527,0,13.709,6.181,13.709,13.709C399.546,265.639,393.365,271.758,385.776,271.758z"/>
</g>
</svg>
