<?xml version="1.0" encoding="utf-8"?>
<!-- Generator: Adobe Illustrator 21.0.2, SVG Export Plug-In . SVG Version: 6.00 Build 0)  -->
<svg version="1.1" id="Calque_1" xmlns="http://www.w3.org/2000/svg" xmlns:xlink="http://www.w3.org/1999/xlink" x="0px" y="0px"
	 viewBox="0 0 566.9 566.9" style="enable-background:new 0 0 566.9 566.9;" xml:space="preserve">
<g>
	<path d="M81.4,261.8h-28v-8.6c0-4-0.4-6.6-1.1-7.7c-0.7-1.1-1.9-1.7-3.6-1.7c-1.8,0-3.2,0.7-4.1,2.2c-0.9,1.5-1.4,3.7-1.4,6.7
		c0,3.9,0.5,6.8,1.6,8.8c1,2,3.8,4.3,8.5,7.1c13.4,8,21.9,14.5,25.4,19.6c3.5,5.1,5.2,13.4,5.2,24.7c0,8.3-1,14.4-2.9,18.3
		c-1.9,3.9-5.7,7.2-11.2,9.9c-5.5,2.7-12,4-19.4,4c-8.1,0-15-1.5-20.7-4.6c-5.7-3.1-9.5-7-11.2-11.7c-1.8-4.7-2.7-11.4-2.7-20.2
		v-7.6h28v14.1c0,4.4,0.4,7.1,1.2,8.4c0.8,1.2,2.2,1.9,4.2,1.9c2,0,3.5-0.8,4.5-2.4c1-1.6,1.5-3.9,1.5-7c0-6.8-0.9-11.3-2.8-13.4
		c-1.9-2.1-6.6-5.6-14.1-10.5c-7.5-5-12.5-8.6-14.9-10.8c-2.4-2.2-4.5-5.4-6.1-9.3c-1.6-4-2.4-9-2.4-15.2c0-8.9,1.1-15.4,3.4-19.5
		c2.3-4.1,5.9-7.3,11-9.6c5.1-2.3,11.2-3.5,18.4-3.5c7.8,0,14.5,1.3,20,3.8c5.5,2.5,9.2,5.7,11,9.6c1.8,3.8,2.7,10.4,2.7,19.6V261.8
		z"/>
	<path d="M162.3,291.6c0,11.7-0.3,19.9-0.8,24.8c-0.6,4.9-2.3,9.3-5.2,13.3c-2.9,4-6.8,7.1-11.7,9.3c-4.9,2.2-10.7,3.2-17.2,3.2
		c-6.2,0-11.8-1-16.7-3c-4.9-2-8.9-5.1-11.9-9.1c-3-4.1-4.8-8.5-5.4-13.3c-0.6-4.8-0.9-13.1-0.9-25.1v-19.9
		c0-11.7,0.3-19.9,0.8-24.8c0.5-4.9,2.3-9.3,5.2-13.3c2.9-4,6.8-7.1,11.7-9.3c4.9-2.2,10.7-3.2,17.2-3.2c6.2,0,11.8,1,16.7,3
		c4.9,2,8.9,5.1,11.9,9.1s4.8,8.5,5.4,13.3c0.6,4.8,0.9,13.1,0.9,25.1V291.6z M132.1,253.5c0-5.4-0.3-8.9-0.9-10.4
		c-0.6-1.5-1.8-2.3-3.7-2.3c-1.6,0-2.8,0.6-3.6,1.8c-0.8,1.2-1.3,4.8-1.3,10.8v54.2c0,6.7,0.3,10.9,0.8,12.5
		c0.5,1.6,1.8,2.4,3.8,2.4c2.1,0,3.4-0.9,3.9-2.7s0.9-6.1,0.9-13V253.5z"/>
	<path d="M266.8,226.6v116.1h-26.4l0-78.4l-10.5,78.4h-18.7L200,266.1l0,76.6h-26.4V226.6h39.1c1.2,7,2.4,15.2,3.6,24.7l4.3,29.5
		l6.9-54.2H266.8z"/>
	<path d="M278.9,223.6h50.3v23.2h-20.2v22h18.9V291h-18.9v25.5h22.2v23.2h-52.4V223.6z"/>
	<path d="M408.9,291.6c0,11.7-0.3,19.9-0.8,24.8c-0.6,4.9-2.3,9.3-5.2,13.3c-2.9,4-6.8,7.1-11.7,9.3c-4.9,2.2-10.7,3.2-17.2,3.2
		c-6.2,0-11.8-1-16.7-3c-4.9-2-8.9-5.1-11.9-9.1c-3-4.1-4.8-8.5-5.4-13.3c-0.6-4.8-0.9-13.1-0.9-25.1v-19.9
		c0-11.7,0.3-19.9,0.8-24.8c0.5-4.9,2.3-9.3,5.2-13.3c2.9-4,6.8-7.1,11.7-9.3s10.7-3.2,17.2-3.2c6.2,0,11.8,1,16.7,3
		c4.9,2,8.9,5.1,11.9,9.1c3,4.1,4.8,8.5,5.4,13.3c0.6,4.8,0.9,13.1,0.9,25.1V291.6z M378.7,253.5c0-5.4-0.3-8.9-0.9-10.4
		c-0.6-1.5-1.8-2.3-3.7-2.3c-1.6,0-2.8,0.6-3.6,1.8c-0.8,1.2-1.3,4.8-1.3,10.8v54.2c0,6.7,0.3,10.9,0.8,12.5
		c0.5,1.6,1.8,2.4,3.8,2.4c2.1,0,3.4-0.9,3.9-2.7s0.9-6.1,0.9-13V253.5z"/>
	<path d="M487.6,229.6v116.1h-26.5L445.4,293v52.8h-25.2V229.6h25.2l16.9,52.3v-52.3H487.6z"/>
	<path d="M499.7,226.6H550v23.2h-20.2v22h18.9V294h-18.9v25.5H552v23.2h-52.4V226.6z"/>
</g>
</svg>
